<svg width="32" height="32" fill="none" xmlns="http://www.w3.org/2000/svg">
  <path d="M5.293 6.707L4.586 6l-.707.707.707.707.707-.707zM14.586 16l.707.707L16 16l-.707-.707-.707.707zM6.707 5.293l.707-.707-.707-.707L6 4.586l.707.707zM16 14.586l-.707.707L16 16l.707-.707-.707-.707zm9.293-9.293L26 4.586l-.707-.707-.707.707.707.707zm1.414 1.414l.707.707.707-.707L27.414 6l-.707.707zM17.414 16l-.707-.707L16 16l.707.707.707-.707zm9.293 9.293l.707.707.707-.707-.707-.707-.707.707zm-1.414 1.414l-.707.707.707.707.707-.707-.707-.707zM16 17.414l.707-.707L16 16l-.707.707.707.707zm-9.293 9.293L6 27.414l.707.707.707-.707-.707-.707zm-1.414-1.414l-.707-.707-.707.707.707.707.707-.707zM4.586 7.414l9.293 9.293 1.414-1.414L6 6 4.586 7.414zM6 4.586L4.586 6 6 7.414 7.414 6 6 4.586zm10.707 9.293L7.414 4.586 6 6l9.293 9.293 1.414-1.414zm0 1.414L26 6l-1.414-1.414-9.293 9.293 1.414 1.414zM24.586 6L26 7.414 27.414 6 26 4.586 24.586 6zM26 6l-9.293 9.293 1.414 1.414 9.293-9.293L26 6zm1.414 18.586l-9.293-9.293-1.414 1.414L26 26l1.414-1.414zM26 27.414L27.414 26 26 24.586 24.586 26 26 27.414zm-10.707-9.293l9.293 9.293L26 26l-9.293-9.293-1.414 1.414zm0-1.414L6 26l1.414 1.414 9.293-9.293-1.414-1.414zM7.414 26L6 24.586 4.586 26 6 27.414 7.414 26zM6 26l9.293-9.293-1.414-1.414-9.293 9.293L6 26z" fill="#ffffff"/>
</svg>
