<svg width="230" height="88" fill="none" xmlns="http://www.w3.org/2000/svg">
  <path fill-rule="evenodd" clip-rule="evenodd" d="M164.419 47.874c0 5.86 3.664 11.389 10.841 11.389 7.012 0 10.77-5.528 10.77-11.389v-1.179h-4.123v1.18c0 4.356-2.07 7.647-6.647 7.647-4.576 0-6.646-3.378-6.646-7.648V29.961h-4.195v17.913zm-9.91 10.806h4.195V29.96h-4.195v28.72zm-52.587-14.09c0 8.188 6.457 14.63 14.592 14.63 8.136 0 14.585-6.442 14.585-14.63 0-8.146-6.449-14.588-14.585-14.588h-.678v3.657h.678c5.974 0 10.687 4.78 10.687 10.931 0 6.193-4.713 10.973-10.687 10.973-5.975 0-10.694-4.78-10.694-10.973h-3.898z" fill="#000105"/>
  <path fill-rule="evenodd" clip-rule="evenodd" d="M182.302 36.828c0 3.533 1.647 5.544 4.279 6.96 2.038 1.082 4.174 1.332 6.169 2.082 2.918 1.079 3.802 2.566 3.802 4.674 0 2.886-1.982 4.73-5.252 4.73h-.412v3.413h.248c5.806 0 9.488-3.627 9.488-8.16 0-2.976-1.443-5.984-5.262-7.69-2.038-.917-4.486-1.381-6.269-2.13-1.952-.833-2.667-1.964-2.667-3.837 0-2.249 1.868-3.956 4.712-3.956 3.736 0 5.475 1.832 5.561 4.497h3.777c.128-4.164-2.886-8.036-9.338-8.036-5.306 0-8.836 3.29-8.836 7.453zm-50.262-3.086h8.383c2.712 0 5.339 2.12 5.339 5.279 0 3.034-2.416 5.32-5.466 5.32h-4.423v3.782l3.332-.033 5.574 10.59h4.619l-6.019-11.08c3.147-.956 6.289-4.215 6.289-8.58 0-5.195-3.729-9.06-9.11-9.06h-8.518v3.782zm-43.08 0h5.09V58.68h4.153V33.742h11.955V29.96H88.959v3.782zM47.02 58.68h4.067l9.068-23.773L69.52 58.68h4.365L62.316 29.96h-4.322L47.02 58.68zm-17.611-8.928c-.127 4.657 2.995 8.94 10.072 8.94h.255v-3.493h-.255c-3.772 0-6.13-2.412-6.13-5.447v-1.535h-3.942v1.535zm.918-12.93c0 3.326 1.356 5.57 4.153 6.984 2.034 1.04 4.238 1.331 6.23 2.08 2.12.79 2.925 1.454 3.221 2.619h4.28c-.593-2.453-2.246-4.449-4.789-5.613-2.034-.915-4.62-1.414-6.4-2.162-1.949-.832-2.542-1.996-2.542-3.867 0-2.245 1.865-3.95 4.704-3.95 3.73 0 5.468 1.83 5.552 4.49h3.772c.127-4.157-2.882-8.024-9.324-8.024-5.297 0-8.857 3.284-8.857 7.442zm39.046-3.08h8.541c2.712 0 5.34 2.12 5.34 5.279 0 3.034-2.416 5.32-5.467 5.32h-4.58v3.782l3.49-.033 5.573 10.59h4.619L80.87 47.6c3.148-.956 6.29-4.215 6.29-8.58 0-5.195-3.73-9.06-9.11-9.06h-8.677v3.782z" fill="#000105"/>
</svg>
